<?xml version="1.0" encoding="iso-8859-1"?>
<!-- Generator: Adobe Illustrator 25.4.1, SVG Export Plug-In . SVG Version: 6.00 Build 0)  -->
<svg version="1.1" id="Layer_1" xmlns="http://www.w3.org/2000/svg" xmlns:xlink="http://www.w3.org/1999/xlink" x="0px" y="0px"
	 viewBox="0 0 25 25" style="enable-background:new 0 0 25 25;" xml:space="preserve">
<g>
	<path style="fill:#44444F;" d="M6.5,3.5c-0.796,0-1.559,0.316-2.121,0.879C3.816,4.941,3.5,5.704,3.5,6.5v12
		c0,0.796,0.316,1.559,0.879,2.121C4.941,21.184,5.704,21.5,6.5,21.5h5c0.265,0,0.52-0.105,0.707-0.293
		C12.395,21.02,12.5,20.765,12.5,20.5s-0.105-0.52-0.293-0.707C12.02,19.605,11.765,19.5,11.5,19.5h-5
		c-0.265,0-0.52-0.105-0.707-0.293C5.605,19.02,5.5,18.765,5.5,18.5v-12c0-0.265,0.105-0.52,0.293-0.707
		C5.98,5.605,6.235,5.5,6.5,5.5h5c0.265,0,0.52-0.105,0.707-0.293C12.395,5.02,12.5,4.765,12.5,4.5c0-0.265-0.105-0.52-0.293-0.707
		C12.02,3.605,11.765,3.5,11.5,3.5H6.5z"/>
	<path style="fill:#44444F;" d="M15.793,7.793C15.981,7.605,16.235,7.5,16.5,7.5s0.519,0.105,0.707,0.293l4,4
		C21.394,11.98,21.5,12.235,21.5,12.5c0,0.265-0.106,0.52-0.293,0.707l-4,4c-0.189,0.182-0.441,0.283-0.703,0.281
		c-0.263-0.002-0.513-0.108-0.699-0.293c-0.185-0.185-0.29-0.436-0.293-0.698c-0.002-0.262,0.099-0.515,0.281-0.703l2.293-2.293
		H10.5c-0.265,0-0.52-0.105-0.707-0.293C9.605,13.019,9.5,12.765,9.5,12.5c0-0.265,0.105-0.52,0.293-0.707
		C9.98,11.605,10.235,11.5,10.5,11.5h7.586l-2.293-2.293C15.606,9.019,15.5,8.765,15.5,8.5C15.5,8.235,15.606,7.98,15.793,7.793z"/>
</g>
</svg>
