<?xml version="1.0" encoding="iso-8859-1"?>
<!-- Generator: Adobe Illustrator 25.4.1, SVG Export Plug-In . SVG Version: 6.00 Build 0)  -->
<svg version="1.1" id="Layer_1" xmlns="http://www.w3.org/2000/svg" xmlns:xlink="http://www.w3.org/1999/xlink" x="0px" y="0px"
	 viewBox="0 0 25 25" style="enable-background:new 0 0 25 25;" xml:space="preserve">
<g>
	<path style="fill:#FF6600;" d="M23.701,4.729h-2.425V2.301c0-0.414-0.336-0.75-0.75-0.75s-0.75,0.336-0.75,0.75v2.428h-2.425
		c-0.414,0-0.75,0.335-0.75,0.75s0.336,0.75,0.75,0.75h2.426v2.424c0,0.414,0.336,0.75,0.75,0.75s0.75-0.336,0.75-0.75V6.229h2.425
		c0.415,0,0.75-0.337,0.75-0.75C24.452,5.066,24.116,4.729,23.701,4.729L23.701,4.729z M17.471,12.335
		c0.02-2.434-0.782-4.597-2.258-6.09c-1.324-1.342-3.116-2.084-5.046-2.093h-0.013c-1.93,0.01-3.722,0.75-5.046,2.092
		c-1.475,1.495-2.277,3.658-2.257,6.092c0.036,4.133-1.923,5.693-2,5.753c-0.26,0.193-0.367,0.53-0.266,0.838
		c0.102,0.308,0.39,0.515,0.712,0.515h4.716c0.11,2.226,1.94,4.007,4.194,4.007s4.083-1.78,4.194-4.007h4.625
		c0.32,0,0.604-0.206,0.707-0.51s0-0.643-0.255-0.838C19.396,18.03,17.435,16.469,17.471,12.335L17.471,12.335z M10.206,21.949
		c-1.426,0-2.586-1.11-2.694-2.508H12.9c-0.108,1.4-1.268,2.507-2.694,2.507V21.949z M2.916,17.942
		c0.702-1.095,1.457-2.904,1.434-5.618c-0.017-2.062,0.614-3.8,1.825-5.025c1.043-1.056,2.458-1.64,3.986-1.646
		c1.527,0.007,2.943,0.59,3.985,1.646c1.21,1.226,1.84,2.963,1.823,5.025c-0.022,2.714,0.732,4.523,1.437,5.618H2.916z"/>
</g>
</svg>
