<?xml version="1.0" encoding="utf-8"?>
<!-- Generator: Adobe Illustrator 25.1.0, SVG Export Plug-In . SVG Version: 6.00 Build 0)  -->
<svg version="1.1" id="Layer_1" xmlns="http://www.w3.org/2000/svg" xmlns:xlink="http://www.w3.org/1999/xlink" x="0px" y="0px"
	 viewBox="0 0 24 22" style="enable-background:new 0 0 24 22;" xml:space="preserve">
<style type="text/css">
	.st0{fill:#696974;}
</style>
<path class="st0" d="M8.8,5.2H5.6V1.9c0-0.4-0.3-0.8-0.8-0.8S4.1,1.5,4.1,1.9v3.3H0.8C0.4,5.2,0,5.5,0,6s0.3,0.8,0.8,0.8h3.3v3.3
	c0,0.4,0.3,0.8,0.8,0.8s0.8-0.3,0.8-0.8V6.7H9c0.4,0,0.8-0.3,0.8-0.8S9.3,5.2,8.8,5.2z M23.8,0.3V0.2h-0.1c-0.1,0-9.2,1.2-14.4,11.7
	c-3.8,7.6-3.6,9.9-3.3,9.9c0.3,0.1,3.4-6.5,6.7-9.2c5.2-1.1,6.6-3.6,6.6-3.6s-1.5,0.2-2.1,0.2c-0.8,0-1.4-0.2-1.7-0.3
	c1.3-1.2,2.4-1.5,3.5-1.7C19.9,7,20.8,6.8,22,6C24.2,4.4,23.9,0.5,23.8,0.3z"/>
</svg>
