<?xml version="1.0" encoding="iso-8859-1"?>
<!-- Generator: Adobe Illustrator 25.4.1, SVG Export Plug-In . SVG Version: 6.00 Build 0)  -->
<svg version="1.1" id="Layer_1" xmlns="http://www.w3.org/2000/svg" xmlns:xlink="http://www.w3.org/1999/xlink" x="0px" y="0px"
	 viewBox="0 0 50 50" style="enable-background:new 0 0 50 50;" xml:space="preserve">
<g>
	<path style="fill-rule:evenodd;clip-rule:evenodd;fill:#FF6600;" d="M30.699,23.471c0,0-7.467,12.107-13.589,12.107
		c-10.708,0-0.729-23.065,7.081-23.065C29.641,12.513,30.699,23.471,30.699,23.471z"/>
	<path style="fill-rule:evenodd;clip-rule:evenodd;fill:#FF6600;" d="M39.572,38.697c-2.127,2.263-4.752,4-7.668,5.073
		c-2.915,1.073-6.04,1.451-9.128,1.106c-3.087-0.345-6.051-1.405-8.658-3.095c-2.606-1.69-4.783-3.964-6.358-6.641
		c1.77,2.408,4.773,4.013,9.042,4.013c10.517,0,16.487-8.173,16.487-8.173s0.516,6.459,6.269,7.717H39.572z"/>
	<path style="fill-rule:evenodd;clip-rule:evenodd;fill:#FF6600;" d="M42.722,15.745c1.574,3.008,2.356,6.366,2.272,9.76
		c-0.084,3.393-1.032,6.709-2.753,9.635c-1.361-0.764-2.368-2.032-2.803-3.531l-2.282-6.837L42.722,15.745z"/>
	<path style="fill-rule:evenodd;clip-rule:evenodd;fill:#FF6600;" d="M25.003,5.017c5.015-0.003,9.848,1.881,13.537,5.279
		l-3.788,6.112c-1.371-3.566-4.156-7.136-9.575-7.136c-11.098,0-19.324,12.116-19.324,19.712c-0.002,0.982,0.123,1.961,0.373,2.911
		c-1.11-3.023-1.473-6.269-1.06-9.462c0.414-3.193,1.592-6.24,3.436-8.88c1.843-2.64,4.297-4.797,7.153-6.286S21.783,5,25.003,5
		V5.017z"/>
</g>
</svg>
