<?xml version="1.0" encoding="iso-8859-1"?>
<!-- Generator: Adobe Illustrator 25.4.1, SVG Export Plug-In . SVG Version: 6.00 Build 0)  -->
<svg version="1.1" id="Layer_1" xmlns="http://www.w3.org/2000/svg" xmlns:xlink="http://www.w3.org/1999/xlink" x="0px" y="0px"
	 viewBox="0 0 25 25" style="enable-background:new 0 0 25 25;" xml:space="preserve">
<g>
	<path style="fill:#171725;" d="M20.208,22.5H4.792c-1.264,0-2.292-1.028-2.292-2.292V7.875c0-1.265,1.028-2.292,2.292-2.292h2.146
		C8.133,3.67,10.222,2.5,12.5,2.5c2.277,0,4.367,1.17,5.562,3.083h2.146c1.264,0,2.292,1.027,2.292,2.292v12.333
		C22.5,21.472,21.472,22.5,20.208,22.5z M4.792,7.083C4.355,7.083,4,7.438,4,7.875v12.333C4,20.645,4.355,21,4.792,21h15.416
		C20.645,21,21,20.645,21,20.208V7.875c0-0.437-0.355-0.792-0.792-0.792h-2.45c-0.317,0.05-0.632-0.095-0.782-0.382
		c-0.88-1.665-2.594-2.7-4.476-2.7c-1.883,0-3.598,1.035-4.476,2.702c-0.16,0.302-0.502,0.46-0.833,0.38H4.793H4.792z"/>
	<path style="fill:#171725;" d="M12.5,8.667c-2.68,0-4.86,2.18-4.86,4.86s2.18,4.86,4.86,4.86s4.86-2.18,4.86-4.86
		S15.18,8.667,12.5,8.667z M14.5,14.25h-1.25v1.25c0,0.414-0.336,0.75-0.75,0.75s-0.75-0.336-0.75-0.75v-1.25H10.5
		c-0.414,0-0.75-0.336-0.75-0.75s0.336-0.75,0.75-0.75h1.25V11.5c0-0.414,0.336-0.75,0.75-0.75s0.75,0.336,0.75,0.75v1.25h1.25
		c0.414,0,0.75,0.336,0.75,0.75S14.914,14.25,14.5,14.25z"/>
</g>
</svg>
