<?xml version="1.0" encoding="iso-8859-1"?>
<!-- Generator: Adobe Illustrator 25.4.1, SVG Export Plug-In . SVG Version: 6.00 Build 0)  -->
<svg version="1.1" id="Layer_1" xmlns="http://www.w3.org/2000/svg" xmlns:xlink="http://www.w3.org/1999/xlink" x="0px" y="0px"
	 viewBox="0 0 14.999 15" style="enable-background:new 0 0 14.999 15;" xml:space="preserve">
<path style="fill:#FF6600;" d="M8.914,7.5l5.793-5.793c0.39-0.39,0.39-1.023,0-1.414c-0.39-0.391-1.023-0.39-1.414,0L7.5,6.086
	L1.707,0.293c-0.39-0.39-1.023-0.39-1.414,0s-0.39,1.023,0,1.414L6.086,7.5l-5.793,5.793c-0.39,0.39-0.39,1.023,0,1.414
	C0.488,14.902,0.743,15,1,15s0.512-0.098,0.707-0.293L7.5,8.914l5.793,5.793C13.488,14.902,13.743,15,14,15s0.512-0.098,0.707-0.293
	c0.39-0.39,0.39-1.023,0-1.414L8.914,7.5z"/>
</svg>
