<?xml version="1.0" encoding="iso-8859-1"?>
<!-- Generator: Adobe Illustrator 25.4.1, SVG Export Plug-In . SVG Version: 6.00 Build 0)  -->
<svg version="1.1" id="Layer_1" xmlns="http://www.w3.org/2000/svg" xmlns:xlink="http://www.w3.org/1999/xlink" x="0px" y="0px"
	 viewBox="0 0 25 25" style="enable-background:new 0 0 25 25;" xml:space="preserve">
<path style="fill:#FF6600;" d="M23.079,7.948L12.974,2.495c-0.297-0.16-0.654-0.16-0.95,0l-10.1,5.453
	c-0.486,0.264-0.667,0.87-0.405,1.356c0.18,0.335,0.525,0.525,0.88,0.525c0.16,0,0.324-0.038,0.475-0.12l0.734-0.396l1.59,11.25
	c0.216,1.214,1.31,2.062,2.66,2.062h9.282c1.35,0,2.444-0.848,2.662-2.088L21.39,9.312l0.737,0.398
	c0.485,0.263,1.092,0.082,1.354-0.404c0.263-0.486,0.08-1.093-0.404-1.355L23.079,7.948z M12.499,16.033
	c-1.795,0-3.25-1.455-3.25-3.25c0-1.795,1.455-3.25,3.25-3.25c1.795,0,3.25,1.455,3.25,3.25
	C15.749,14.578,14.294,16.033,12.499,16.033z"/>
</svg>
