<?xml version="1.0" encoding="iso-8859-1"?>
<!-- Generator: Adobe Illustrator 25.4.1, SVG Export Plug-In . SVG Version: 6.00 Build 0)  -->
<svg version="1.1" id="Layer_1" xmlns="http://www.w3.org/2000/svg" xmlns:xlink="http://www.w3.org/1999/xlink" x="0px" y="0px"
	 viewBox="0 0 25 25" style="enable-background:new 0 0 25 25;" xml:space="preserve">
<g>
	<path style="fill:#44444F;" d="M22.958,8.045L12.855,2.59c-0.223-0.12-0.49-0.12-0.713,0L2.041,8.045
		c-0.364,0.197-0.5,0.652-0.303,1.017c0.135,0.25,0.394,0.393,0.66,0.393c0.12,0,0.243-0.03,0.356-0.09l0.815-0.44l1.629,11.513
		C5.412,21.653,6.506,22.5,7.856,22.5h9.282c1.352,0,2.445-0.848,2.663-2.087l1.626-11.49l0.818,0.442
		c0.364,0.193,0.82,0.06,1.017-0.304C23.458,8.698,23.322,8.243,22.958,8.045z M18.32,20.178C18.213,20.784,17.617,21,17.14,21
		H7.858c-0.48,0-1.075-0.216-1.178-0.798L4.978,8.165l7.52-4.062l7.522,4.06L18.32,20.178z"/>
	<path style="fill:#44444F;" d="M8.718,12.659c0,2.084,1.695,3.78,3.78,3.78s3.78-1.696,3.78-3.78s-1.695-3.78-3.78-3.78
		S8.718,10.575,8.718,12.659z M14.778,12.659c0,1.258-1.022,2.28-2.28,2.28s-2.28-1.022-2.28-2.28s1.022-2.28,2.28-2.28
		S14.778,11.401,14.778,12.659z"/>
</g>
</svg>
