<?xml version="1.0" encoding="iso-8859-1"?>
<!-- Generator: Adobe Illustrator 25.4.1, SVG Export Plug-In . SVG Version: 6.00 Build 0)  -->
<svg version="1.1" id="Layer_1" xmlns="http://www.w3.org/2000/svg" xmlns:xlink="http://www.w3.org/1999/xlink" x="0px" y="0px"
	 viewBox="0 0 25 25" style="enable-background:new 0 0 25 25;" xml:space="preserve">
<g>
	<path style="fill:#FF6600;" d="M19.75,3.5H5.25C3.733,3.5,2.5,4.734,2.5,6.252v12.495c0,1.518,1.233,2.753,2.75,2.753h14.5
		c1.517,0,2.75-1.235,2.75-2.753V6.252C22.5,4.734,21.267,3.5,19.75,3.5z M5.25,5h14.5C20.44,5,21,5.56,21,6.25v0.714l-8.05,5.367
		c-0.273,0.18-0.626,0.182-0.9-0.002L4,6.964V6.25C4,5.56,4.56,5,5.25,5z M19.75,19.998H5.25c-0.69,0-1.25-0.56-1.25-1.25V8.722
		l7.24,4.83c0.383,0.256,0.822,0.384,1.26,0.384c0.44,0,0.877-0.128,1.26-0.383L21,8.723v10.022c0,0.69-0.56,1.25-1.25,1.25V19.998z
		"/>
</g>
</svg>
