<?xml version="1.0" encoding="iso-8859-1"?>
<!-- Generator: Adobe Illustrator 25.4.1, SVG Export Plug-In . SVG Version: 6.00 Build 0)  -->
<svg version="1.1" id="Layer_1" xmlns="http://www.w3.org/2000/svg" xmlns:xlink="http://www.w3.org/1999/xlink" x="0px" y="0px"
	 viewBox="0 0 1500 409.273" style="enable-background:new 0 0 1500 409.273;" xml:space="preserve">
<g>
	<path style="fill:#D1D3D4;" d="M670.543,334.497L670.543,334.497c1.857,1.072,2.493,3.446,1.421,5.302l-22.341,38.696
		c-1.072,1.857-3.446,2.493-5.302,1.421h0c-1.857-1.072-2.493-3.446-1.421-5.302l22.341-38.696
		C666.312,334.062,668.686,333.425,670.543,334.497z"/>
	<path style="fill:#D1D3D4;" d="M746.118,356.828L746.118,356.828c2.144,0,3.882,1.738,3.882,3.882v44.682
		c0,2.144-1.738,3.882-3.882,3.882l0,0c-2.144,0-3.882-1.738-3.882-3.882V360.71C742.237,358.566,743.975,356.828,746.118,356.828z"
		/>
	<path style="fill:#D1D3D4;" d="M822.734,338.379L822.734,338.379c1.857-1.072,4.23-0.436,5.302,1.421l22.341,38.696
		c1.072,1.857,0.436,4.23-1.421,5.302l0,0c-1.857,1.072-4.23,0.436-5.302-1.421l-22.341-38.696
		C820.241,341.825,820.878,339.451,822.734,338.379z"/>
	<path style="fill:#D1D3D4;" d="M639.372,309.775L639.372,309.775c1.516,1.516,1.516,3.974,0,5.489l-18.241,18.241
		c-1.516,1.516-3.974,1.516-5.489,0l0,0c-1.516-1.516-1.516-3.974,0-5.489l18.241-18.241
		C635.398,308.259,637.856,308.259,639.372,309.775z"/>
	<path style="fill:#D1D3D4;" d="M706.763,351.003L706.763,351.003c2.071,0.555,3.3,2.683,2.745,4.754l-6.677,24.918
		c-0.555,2.071-2.683,3.3-4.754,2.745l0,0c-2.071-0.555-3.299-2.683-2.745-4.754l6.677-24.918
		C702.563,351.677,704.692,350.449,706.763,351.003z"/>
	<path style="fill:#D1D3D4;" d="M785.739,353.013L785.739,353.013c2.071-0.555,4.199,0.674,4.754,2.745l6.677,24.918
		c0.555,2.071-0.674,4.199-2.745,4.754l0,0c-2.071,0.555-4.199-0.674-4.754-2.745l-6.677-24.918
		C782.439,355.696,783.668,353.568,785.739,353.013z"/>
	<path style="fill:#D1D3D4;" d="M855.139,315.265L855.139,315.265c1.516-1.516,3.974-1.516,5.489,0l18.241,18.241
		c1.516,1.516,1.516,3.974,0,5.489h0c-1.516,1.516-3.974,1.516-5.489,0l-18.241-18.241
		C853.623,319.238,853.623,316.781,855.139,315.265z"/>
</g>
<g>
	<path d="M753.882,52.445L753.882,52.445c-2.144,0-3.882-1.738-3.882-3.882V3.882C750,1.738,751.738,0,753.882,0h0
		c2.144,0,3.882,1.738,3.882,3.882v44.682C757.763,50.707,756.025,52.445,753.882,52.445z"/>
	<path d="M677.266,70.894L677.266,70.894c-1.857,1.072-4.231,0.436-5.302-1.421l-22.341-38.696c-1.072-1.857-0.436-4.23,1.421-5.302
		v0c1.857-1.072,4.231-0.436,5.302,1.421l22.341,38.696C679.759,67.448,679.122,69.822,677.266,70.894z"/>
	<path d="M829.457,74.776L829.457,74.776c-1.857-1.072-2.493-3.446-1.421-5.302l22.341-38.696c1.072-1.857,3.446-2.493,5.302-1.421
		v0c1.857,1.072,2.493,3.446,1.421,5.302L834.76,73.355C833.688,75.212,831.314,75.848,829.457,74.776z"/>
	<path d="M714.261,56.26L714.261,56.26c-2.071,0.555-4.199-0.674-4.754-2.745l-6.677-24.918c-0.555-2.071,0.674-4.199,2.745-4.754v0
		c2.071-0.555,4.199,0.674,4.754,2.745l6.677,24.918C717.561,53.577,716.332,55.706,714.261,56.26z"/>
	<path d="M644.861,94.008L644.861,94.008c-1.516,1.516-3.974,1.516-5.489,0l-18.241-18.241c-1.516-1.516-1.516-3.974,0-5.489v0
		c1.516-1.516,3.974-1.516,5.489,0l18.241,18.241C646.377,90.035,646.377,92.493,644.861,94.008z"/>
	<path d="M860.628,99.498L860.628,99.498c-1.516-1.516-1.516-3.974,0-5.489l18.241-18.241c1.516-1.516,3.974-1.516,5.489,0v0
		c1.516,1.516,1.516,3.974,0,5.489l-18.241,18.241C864.602,101.014,862.144,101.014,860.628,99.498z"/>
	<path d="M793.237,58.27L793.237,58.27c-2.071-0.555-3.3-2.683-2.745-4.754l6.677-24.918c0.555-2.071,2.683-3.3,4.754-2.745v0
		c2.071,0.555,3.3,2.683,2.745,4.754l-6.677,24.918C797.437,57.596,795.308,58.825,793.237,58.27z"/>
</g>
<g>
	<path d="M738.469,171.844c0,6.905,5.598,12.503,12.503,12.503h38.759v-25.006h-38.759
		C744.067,159.341,738.469,164.939,738.469,171.844z"/>
	<path d="M738.469,237.429c0,6.905,5.598,12.503,12.503,12.503h38.759v-25.006h-38.759
		C744.067,224.926,738.469,230.524,738.469,237.429z"/>
	<path d="M999.845,199.219v-0.979c0-2.166-1.756-3.921-3.921-3.921s-3.921,1.755-3.921,3.921v0.979h-7.514v-0.979
		c0-2.166-1.755-3.921-3.921-3.921c-2.166,0-3.921,1.755-3.921,3.921v0.979h-7.941c-0.238-6.066-5.217-10.914-11.341-10.914h-0.093
		v-12.918c0-24.511-19.87-44.381-44.38-44.381h-71.259c-0.827-11.241-10.202-20.105-21.653-20.105
		c-11.995,0-21.719,9.724-21.719,21.719v144.033c0,11.995,9.724,21.719,21.719,21.719c11.452,0,20.827-8.865,21.653-20.105h71.259
		c24.51,0,44.38-19.87,44.38-44.381v-12.918h0.093c6.124,0,11.103-4.848,11.341-10.914h7.941v0.979c0,2.166,1.755,3.921,3.921,3.921
		c2.166,0,3.921-1.755,3.921-3.921v-0.979h7.514v0.979c0,2.166,1.755,3.921,3.921,3.921s3.921-1.755,3.921-3.921v-0.979H1500v-2.704
		v-5.429v-2.704H999.845z"/>
</g>
<path style="fill:#D1D3D4;" d="M680.201,110.901L680.201,110.901c-11.452,0-20.827,8.865-21.653,20.105h-59.041
	c-11.671,0-21.514,7.799-24.619,18.467h-7.64c-12.754,0-23.094,10.339-23.094,23.094v15.738h-1.519
	c-6.124,0-11.103,4.848-11.341,10.914h-7.941v-0.979c0-2.166-1.755-3.921-3.921-3.921c-2.166,0-3.921,1.755-3.921,3.921v0.979
	h-7.514v-0.979c0-2.166-1.755-3.921-3.921-3.921c-2.166,0-3.921,1.755-3.921,3.921v0.979H0v2.704v5.429v2.704h500.155v0.979
	c0,2.166,1.755,3.921,3.921,3.921c2.166,0,3.921-1.755,3.921-3.921v-0.979h7.514v0.979c0,2.166,1.755,3.921,3.921,3.921
	c2.166,0,3.921-1.755,3.921-3.921v-0.979h7.941c0.238,6.066,5.217,10.914,11.341,10.914h1.519v15.738
	c0,12.754,10.339,23.094,23.094,23.094h7.64c3.105,10.668,12.948,18.467,24.619,18.467h59.041
	c0.827,11.241,10.202,20.105,21.653,20.105h0c11.995,0,21.719-9.724,21.719-21.719V132.62
	C701.92,120.625,692.196,110.901,680.201,110.901z"/>
</svg>
