<?xml version="1.0" encoding="iso-8859-1"?>
<!-- Generator: Adobe Illustrator 25.4.1, SVG Export Plug-In . SVG Version: 6.00 Build 0)  -->
<svg version="1.1" id="Layer_1" xmlns="http://www.w3.org/2000/svg" xmlns:xlink="http://www.w3.org/1999/xlink" x="0px" y="0px"
	 viewBox="0 0 25 25" style="enable-background:new 0 0 25 25;" xml:space="preserve">
<path style="fill:#FF6600;" d="M12.501,12.656c-1.356,0-2.872-0.15-3.84-1.256c-0.814-0.93-1.077-2.368-0.805-4.392
	c0.38-2.826,2.116-4.513,4.646-4.513s4.267,1.687,4.646,4.513c0.272,2.024,0.008,3.46-0.806,4.392
	c-0.97,1.106-2.485,1.255-3.84,1.255L12.501,12.656z M18.35,22.506H6.652c-0.663,0-1.25-0.28-1.65-0.786
	c-0.422-0.534-0.576-1.27-0.41-1.968c0.834-3.53,4.086-5.997,7.908-5.997s7.074,2.466,7.91,5.997
	c0.164,0.698,0.01,1.434-0.412,1.967c-0.4,0.505-0.985,0.785-1.648,0.785V22.506z"/>
</svg>
