<?xml version="1.0" encoding="iso-8859-1"?>
<!-- Generator: Adobe Illustrator 25.4.1, SVG Export Plug-In . SVG Version: 6.00 Build 0)  -->
<svg version="1.1" id="Layer_1" xmlns="http://www.w3.org/2000/svg" xmlns:xlink="http://www.w3.org/1999/xlink" x="0px" y="0px"
	 viewBox="0 0 25 25" style="enable-background:new 0 0 25 25;" xml:space="preserve">
<g>
	<path style="fill:#44444F;" d="M12.5,12.49c1.355,0,2.872-0.15,3.84-1.256c0.814-0.93,1.078-2.368,0.806-4.392
		C16.766,4.017,15.029,2.33,12.5,2.33S8.234,4.017,7.854,6.844c-0.272,2.022-0.008,3.46,0.806,4.39
		C9.628,12.341,11.145,12.49,12.5,12.49z M9.34,7.042c0.162-1.2,0.787-3.212,3.16-3.212s2.998,2.013,3.16,3.212
		c0.207,1.55,0.057,2.627-0.45,3.205c-0.455,0.52-1.266,0.743-2.71,0.743s-2.255-0.223-2.71-0.743
		C9.283,9.669,9.133,8.591,9.34,7.042z M20.78,19.91c-0.877-3.526-4.282-5.99-8.28-5.99s-7.403,2.464-8.28,5.99
		c-0.172,0.692-0.028,1.4,0.395,1.94c0.408,0.52,1.04,0.82,1.733,0.82h12.304c0.693,0,1.325-0.3,1.733-0.82
		C20.809,21.31,20.952,20.603,20.78,19.91L20.78,19.91z M19.204,20.926c-0.126,0.16-0.316,0.246-0.552,0.246H6.348
		c-0.235,0-0.426-0.085-0.552-0.246c-0.137-0.174-0.18-0.412-0.12-0.654c0.71-2.855,3.517-4.85,6.824-4.85s6.114,1.994,6.824,4.85
		C19.384,20.514,19.341,20.752,19.204,20.926z"/>
</g>
</svg>
