<?xml version="1.0" encoding="iso-8859-1"?>
<!-- Generator: Adobe Illustrator 25.4.1, SVG Export Plug-In . SVG Version: 6.00 Build 0)  -->
<svg version="1.1" id="Layer_1" xmlns="http://www.w3.org/2000/svg" xmlns:xlink="http://www.w3.org/1999/xlink" x="0px" y="0px"
	 viewBox="0 0 25 25" style="enable-background:new 0 0 25 25;" xml:space="preserve">
<path style="fill:#6C757D;" d="M15.094,0.169L9.909,0.156H9.906c-5.467,0-9.75,4.284-9.75,9.753c0,5.122,3.983,9.007,9.331,9.212
	v4.785c0,0.135,0.055,0.358,0.15,0.504c0.178,0.281,0.48,0.434,0.79,0.434c0.173,0,0.346-0.048,0.503-0.148
	c0.33-0.21,8.091-5.175,10.11-6.882c2.378-2.013,3.8-4.963,3.804-7.89V9.902c-0.007-5.458-4.287-9.733-9.75-9.735V0.169z
	 M19.828,16.384c-1.417,1.2-6.078,4.256-8.465,5.803v-3.983c0-0.518-0.419-0.938-0.938-0.938H9.93c-4.575,0-7.898-3.095-7.898-7.357
	c0-4.418,3.46-7.878,7.875-7.878l5.184,0.013h0.002c4.415,0,7.875,3.457,7.878,7.87c-0.004,2.387-1.178,4.805-3.143,6.47H19.828z"/>
</svg>
