<?xml version="1.0" encoding="iso-8859-1"?>
<!-- Generator: Adobe Illustrator 25.4.1, SVG Export Plug-In . SVG Version: 6.00 Build 0)  -->
<svg version="1.1" id="Layer_1" xmlns="http://www.w3.org/2000/svg" xmlns:xlink="http://www.w3.org/1999/xlink" x="0px" y="0px"
	 viewBox="0 0 25 25" style="enable-background:new 0 0 25 25;" xml:space="preserve">
<path style="fill-rule:evenodd;clip-rule:evenodd;fill:#FF6600;" d="M12.861,22.875h-0.722c-1.183,0-2.154-0.888-2.262-2.064
	l-0.014-0.147c-0.025-0.287-0.207-0.533-0.472-0.644c-0.286-0.12-0.582-0.065-0.798,0.115l-0.116,0.097
	c-0.868,0.725-2.253,0.663-3.06-0.14l-0.51-0.51c-0.836-0.84-0.896-2.154-0.14-3.06l0.098-0.118c0.186-0.222,0.23-0.523,0.122-0.787
	c-0.11-0.272-0.358-0.454-0.646-0.48l-0.15-0.014c-1.18-0.107-2.067-1.08-2.067-2.262v-0.722c0-1.183,0.888-2.154,2.064-2.262
	l0.156-0.014c0.285-0.025,0.53-0.207,0.642-0.473c0.11-0.27,0.065-0.573-0.12-0.795L4.772,8.479
	c-0.757-0.908-0.698-2.223,0.137-3.06l0.512-0.512c0.804-0.804,2.188-0.865,3.06-0.14l0.116,0.098
	c0.218,0.184,0.528,0.23,0.79,0.122c0.27-0.112,0.452-0.358,0.477-0.643l0.014-0.153c0.107-1.18,1.08-2.066,2.262-2.066h0.722
	c1.183,0,2.154,0.888,2.262,2.064l0.014,0.156c0.025,0.285,0.206,0.53,0.472,0.64c0.277,0.117,0.58,0.062,0.794-0.117l0.12-0.102
	c0.867-0.723,2.254-0.662,3.06,0.14l0.51,0.512c0.836,0.838,0.896,2.153,0.14,3.06l-0.1,0.118c-0.188,0.22-0.234,0.522-0.123,0.788
	c0.112,0.27,0.36,0.45,0.646,0.478l0.152,0.014c1.18,0.107,2.067,1.08,2.067,2.262v0.723c0,1.183-0.888,2.154-2.064,2.262
	l-0.155,0.014c-0.284,0.024-0.53,0.205-0.64,0.47c-0.113,0.272-0.067,0.574,0.117,0.795l0.1,0.12c0.756,0.905,0.696,2.22-0.14,3.06
	l-0.51,0.51c-0.807,0.804-2.19,0.864-3.06,0.14l-0.115-0.096c-0.217-0.183-0.53-0.23-0.79-0.122c-0.273,0.114-0.455,0.36-0.48,0.646
	l-0.014,0.15c-0.107,1.173-1.08,2.06-2.262,2.06L12.861,22.875z M8.711,12.5c0-2.09,1.7-3.79,3.79-3.79s3.79,1.7,3.79,3.79
	s-1.7,3.79-3.79,3.79S8.711,14.59,8.711,12.5z M10.211,12.5c0,1.264,1.028,2.29,2.29,2.29s2.29-1.026,2.29-2.29
	s-1.03-2.29-2.29-2.29S10.211,11.236,10.211,12.5z"/>
</svg>
